<svg xmlns="http://www.w3.org/2000/svg" viewBox="0 0 461 220"><defs><style>.cls-1{fill:#f7f9f9;}.cls-2{fill:#1e464a;}.cls-3{fill:#b38d42;}.cls-4{fill:#fff;}</style></defs><title>資產 4</title><g id="圖層_2" data-name="圖層 2"><g id="圖層_1-2" data-name="圖層 1"><rect class="cls-1" width="461" height="220"/><path class="cls-2" d="M192.77,35.49h26.84v7.94h-16.9V55.54h13v7.94h-13V81.79h-9.94Z"/><path class="cls-2" d="M247.74,66.25H230.21v1.89q0,4.6,1.22,6.15a3.88,3.88,0,0,0,3.2,1.55q4.26,0,4.79-5.83l8.32.54Q245.52,82.5,234.47,82.5q-6.82,0-10.36-4.71t-3.54-12.62q0-8.92,3.76-13.62a12.24,12.24,0,0,1,10.08-4.7A12.4,12.4,0,0,1,243.91,51Q247.74,55.16,247.74,66.25Zm-8.81-5.53c0-.41,0-.72,0-.95q0-6.62-4.36-6.61t-4.32,7.56Z"/><path class="cls-2" d="M253.21,47.53h8.22v8.28q2.22-8.72,7.92-8.72a8.7,8.7,0,0,1,1.59.17v9.33a13.07,13.07,0,0,0-1.56-.14q-6.83,0-6.83,10.58V81.79h-9.34Z"/><path class="cls-2" d="M274,47.53h8.85v4.68q2.32-5.36,8.38-5.36a9.17,9.17,0,0,1,5.42,1.51,6.63,6.63,0,0,1,2.73,3.85,31.24,31.24,0,0,1,.6,7.12V81.79h-9.34V59.33q0-3.46-.86-4.27a3.24,3.24,0,0,0-2.32-.81q-2.52,0-3.31,1.58t-.79,5.88V81.79H274Z"/><path class="cls-2" d="M319.87,35.49h9.94V54.18h10.87V35.49h9.94v46.3h-9.94V62.86H329.81V81.79h-9.94Z"/><path class="cls-2" d="M384.09,64.66q0,17.84-13.57,17.84t-13.6-17.84q0-17.81,13.6-17.81T384.09,64.66Zm-9.64,0q0-6.56-.87-8.87a3.18,3.18,0,0,0-6.09-.12q-.92,2.19-.92,9,0,6.29.79,8.73a3.23,3.23,0,0,0,6.27,0Q374.44,71,374.45,64.68Z"/><path class="cls-2" d="M389.52,35.49h9.34v46.3h-9.34Z"/><path class="cls-2" d="M415.1,44.71h-9.48V35.25h9.48Zm-9.41,2.82H415V81.79h-9.34Z"/><path class="cls-2" d="M446.88,60.15l-8.68.34a13,13,0,0,0-1-4.77,2.76,2.76,0,0,0-2.68-1.61q-4.71,0-4.71,10.11,0,5.87,1.14,8.21a3.64,3.64,0,0,0,3.4,2.34q3.51,0,3.84-6.34l8.68.58q-1.16,13.5-13.1,13.5-6.45,0-9.88-4.46t-3.42-13.28q0-8.75,3.59-13.33t10.08-4.58Q445.85,46.85,446.88,60.15Z"/><path class="cls-3" d="M199.63,194.21,194.9,188q11.14-7.26,16.55-14.87-.34-.69-6.75-4.84l-1.35,4.15-6.42-2.77a164.42,164.42,0,0,0,7.09-28h-8.44V135.1H205q1.34-8.3,2.36-16.59l7.09,1q1.69.35-.34,2.07-1,6.92-2.36,13.48h8.1l1-1.73,6.42,4.15-1,1.73q-1.69,21.09-6.08,31.46Q225,174.51,230,179l-4.39,6.91a118.5,118.5,0,0,0-8.78-8.3Q210.77,186.61,199.63,194.21Zm14.52-27.31q3.71-10,5.07-25.24h-8.44q-3.38,16.94-4.39,20.74A61.4,61.4,0,0,1,214.15,166.9ZM253,188q0,6.22-4.39,6.22h-8.44l-1.69-7.61h6.42a1.21,1.21,0,0,0,1.35-1.38V161h-17.9v-6.57h17.9V139.94l2.36.35,7.77-10.37H230.7v-6.57h30.05L262.1,122l5.74,5.88q2,1.73-1.35,2.07L253,143.74v10.72h17.9V161H253Z"/><path class="cls-3" d="M357.33,156.18l-1,6.22q-1.35,8.3-8.78,5.53a29.69,29.69,0,0,1-12.83-8.64q-4.05,5.19-13.17,10.72l-4.39-5.88a46.16,46.16,0,0,0,13.51-10.37,63.65,63.65,0,0,1-6.75-23.51H292.49V146.5q0,15.22-6.42,23.16L280,165.52q5.74-7.26,5.74-18.32V124.73h37.82l-.34-9h6.42q3,.35.34,2.07l.34,6.91h10.13q-2.37-1.73-6.42-4.15l5.07-4.15a43,43,0,0,1,8.1,4.84l-4.05,3.46h11.48v5.53h-24a61.79,61.79,0,0,0,5.07,18.32,63.25,63.25,0,0,0,6.42-14.17l6.08,2.77q2.36,1.73-.68,2.42a55.25,55.25,0,0,1-8.1,14.87,22.38,22.38,0,0,0,7.77,5.88q2.36,1,2.7-2.42l.34-3.8Zm-61.8,19a121.44,121.44,0,0,1-5.74,18.67l-7.09-3.8a94.51,94.51,0,0,0,6.75-19l6.75,1.73C297.33,173.47,297.11,174.28,295.53,175.2Zm0-39.76h26.34V141H295.53Zm25.33,9.68v15.21H302.62v2.77h-5.74v-18ZM306.34,169q2.7.35.34,2.07v14.17c0,1.85.79,2.77,2.36,2.77h20.6a2.78,2.78,0,0,0,3-2.77l.67-4.49,6.75.69-1.35,7.26q-1,5.87-7.77,5.88H306q-6.08,0-6.08-5.88V169Zm-3.71-12.79h12.5v-6.91h-12.5Zm14.18,12.1A74.54,74.54,0,0,1,327.28,180l-6.08,4.49a85,85,0,0,0-9.79-12.1Zm33.77,22.82a88.81,88.81,0,0,0-11.82-15.56l5.07-4.15a86.44,86.44,0,0,1,12.83,14.17Z"/><path class="cls-2" d="M401.57,152H412v5.53H398.19v15.56h3.71V161h5.4q3,.7.34,2.07v17.63h-5.74v-2.07h-3.71q0,13.83-15.2,17.29l-2.36-6.57q11.82-2.41,11.48-10.72h-4.39v2.77H382V161h5.4q2.7.35.34,2.07v10h4.73V157.57H378.61v14.87a36.31,36.31,0,0,1-8.78,24.2l-4.05-5.88q7.09-7.95,7.09-23.51V135.1h17.22v-6.57H368.48V123h21.61v-6.91h5.4q2.7.35.34,2.07V123h18.24v-7.26h5.4q2.7.35.34,2.07V123h22.29v5.53H419.81v6.57h21.61v5.53H378.61V152h10.13a27.31,27.31,0,0,0-5.07-6.91l4.39-3.11a37.46,37.46,0,0,1,5.74,7.61L389.75,152h5.4l5.07-10,5.74,2.42q1.35,1.39-1,1.73Zm12.5-23.51H395.83v6.57h18.24Zm19.59,41.14-4.73-3.8a46.3,46.3,0,0,0,5.4-8.64h-7.77v8.3q2.7,13.48,17.22,21.78l-4.05,6.91q-11.83-8.3-15.2-17.29-3,12.45-17.56,19l-2.7-6.22q16.54-7.95,16.55-24.2v-8.3h-1a61,61,0,0,1-7.09,11.06l-4.39-4.15A62.94,62.94,0,0,0,419.13,142l6.08,2.07q1.35,1.39-1,1.73l-2,5.88H437l1-1.38,5.07,3.8q1.34,1.39-1,1.73A107.53,107.53,0,0,1,433.65,169.67Z"/><path class="cls-2" d="M116.49,207.31H171.3a13.93,13.93,0,0,0,13.93-13.93c0-42.06,0-83.55-.16-125a9.23,9.23,0,0,0-3.75-6.6c-24.89-16.9-49.95-33.61-75.06-50.39a13.93,13.93,0,0,0-15.66.12C66.49,28.13,42.89,44.31,19.68,60.91c-3.38,2.42-6.11,7.43-6.2,11.3-.73,29-.77,58-.93,87-.07,11.32,0,22.63,0,34.06a13.93,13.93,0,0,0,13.93,13.91h78c-.07,0,12.2.17,12.13.15"/><path class="cls-4" d="M40.52,202.35c3-17.83,6-35.73,6.54-54,.37-11.79-.27-23.71.86-35.39a105.69,105.69,0,0,1,6.61-28.14C56.8,79,59.68,73.35,63.92,69c3.74-3.88,8.4-6.65,13-9.37q20.71-12.2,41.59-24.1c1.9,5.21-1.26,10.46-4.45,14.53A174.43,174.43,0,0,1,80.67,82.69c-1.85,1.38-3.81,2.81-4.71,5a14.06,14.06,0,0,0-.68,5.37l0,8.4c0,1.88.06,3.92,1.2,5.46s3.13,2.18,4.95,2.58a48.29,48.29,0,0,0,31.82-3.73c2-1,4.07-2.16,6.34-1.84a8.8,8.8,0,0,1,4.26,2.2c3.38,2.85,5.86,7.71,4.29,11.65-1.28,3.2-4.68,4.67-7.76,6a165.77,165.77,0,0,0-23.75,12.36,63.75,63.75,0,0,0-13,10.2c-3.94,4.23-7,9.31-10.14,14.21-12.5,19.22-28,36.2-39,56.47,8.76-15.19,17.65-30.74,21.07-48.41,2.93-15.19,1.66-31.18,2.46-46.8a72.87,72.87,0,0,1,2.64-17.54C62.58,98,65.8,92.37,69,86.8L81.54,64.9c-4.74,6.52-10.41,12.25-14.89,19s-7.79,14.78-7,23.26A28.39,28.39,0,0,0,76,129.82a11.61,11.61,0,0,0,4.37,1.11,11.32,11.32,0,0,0,4.5-1.07c6.89-2.89,12.47-8.14,18.91-11.9s14.62-6,21.65-2.38l-20.79,3.49c-6.23,1-12.56,2.12-18.15,4.92-11.86,5.94-18.79,18.69-24.06,31.27s-9.79,26-19,35.65"/></g></g></svg>